<?xml version="1.0" encoding="us-ascii" standalone="no"?><svg xmlns="http://www.w3.org/2000/svg" xmlns:xlink="http://www.w3.org/1999/xlink" contentStyleType="text/css" height="701px" preserveAspectRatio="none" style="width:1517px;height:701px;background:#FFFFFF;" version="1.1" viewBox="0 0 1517 701" width="1517px" zoomAndPan="magnify"><defs/><g><!--class LeaveStatus--><g id="elem_LeaveStatus"><rect codeLine="1" fill="#F1F1F1" height="96.8906" id="LeaveStatus" rx="2.5" ry="2.5" style="stroke:#181818;stroke-width:0.5;" width="120" x="22" y="137.5"/><ellipse cx="37" cy="153.5" fill="#EB937F" rx="11" ry="11" style="stroke:#181818;stroke-width:1.0;"/><path d="M35.7969,154.375 L37.25,154.375 L37.25,154.4844 C37.25,154.8906 37.2813,155.0469 37.3594,155.2031 C37.5156,155.4531 37.7969,155.6094 38.0938,155.6094 C38.3438,155.6094 38.6094,155.4688 38.7656,155.25 C38.8906,155.0938 38.9219,154.9375 38.9219,154.4844 L38.9219,152.5625 C38.9219,152.4063 38.9219,152.3594 38.9063,152.2031 C38.8438,151.7344 38.5313,151.4219 38.0781,151.4219 C37.8281,151.4219 37.5625,151.5625 37.3906,151.7813 C37.2813,151.9531 37.25,152.1094 37.25,152.5625 L37.25,152.6875 L35.7969,152.6875 L35.7969,150.2813 L39.7813,150.2813 L39.7813,151.1406 C39.7813,151.5469 39.8125,151.7188 39.8906,151.875 C40.0625,152.125 40.3438,152.2813 40.625,152.2813 C40.8906,152.2813 41.1563,152.1406 41.3281,151.9219 C41.4375,151.75 41.4688,151.6094 41.4688,151.1406 L41.4688,148.5938 L33.8438,148.5938 C33.4063,148.5938 33.2813,148.6094 33.125,148.7031 C32.875,148.8594 32.7188,149.1563 32.7188,149.4375 C32.7188,149.7188 32.8594,149.9688 33.0781,150.1406 C33.2344,150.25 33.4219,150.2813 33.8438,150.2813 L34.0938,150.2813 L34.0938,156.7969 L33.8438,156.7969 C33.4375,156.7969 33.2813,156.8125 33.125,156.9219 C32.875,157.0938 32.7188,157.3594 32.7188,157.6563 C32.7188,157.9219 32.8594,158.1719 33.0781,158.3281 C33.2188,158.4531 33.4531,158.5 33.8438,158.5 L41.8438,158.5 L41.8438,155.9219 C41.8438,155.4844 41.8125,155.3438 41.7344,155.1875 C41.5625,154.9375 41.2813,154.7813 41,154.7813 C40.7344,154.7813 40.4688,154.8906 40.2969,155.1406 C40.1875,155.2969 40.1563,155.4375 40.1563,155.9219 L40.1563,156.7969 L35.7969,156.7969 L35.7969,154.375 Z " fill="#000000"/><text fill="#000000" font-family="sans-serif" font-size="14" lengthAdjust="spacing" textLength="88" x="51" y="158.3467">LeaveStatus</text><line style="stroke:#181818;stroke-width:0.5;" x1="23" x2="141" y1="169.5" y2="169.5"/><ellipse cx="33" cy="183.1484" fill="none" rx="3" ry="3" style="stroke:#038048;stroke-width:1.0;"/><text fill="#000000" font-family="sans-serif" font-size="14" lengthAdjust="spacing" textLength="33" x="42" y="186.4951">NEW</text><ellipse cx="33" cy="199.4453" fill="none" rx="3" ry="3" style="stroke:#038048;stroke-width:1.0;"/><text fill="#000000" font-family="sans-serif" font-size="14" lengthAdjust="spacing" textLength="79" x="42" y="202.792">APPROVED</text><ellipse cx="33" cy="215.7422" fill="none" rx="3" ry="3" style="stroke:#038048;stroke-width:1.0;"/><text fill="#000000" font-family="sans-serif" font-size="14" lengthAdjust="spacing" textLength="71" x="42" y="219.0889">REJECTED</text><line style="stroke:#181818;stroke-width:0.5;" x1="23" x2="141" y1="226.3906" y2="226.3906"/></g><!--class LeaveType--><g id="elem_LeaveType"><rect codeLine="6" fill="#F1F1F1" height="96.8906" id="LeaveType" rx="2.5" ry="2.5" style="stroke:#181818;stroke-width:0.5;" width="110" x="177" y="137.5"/><ellipse cx="192" cy="153.5" fill="#EB937F" rx="11" ry="11" style="stroke:#181818;stroke-width:1.0;"/><path d="M190.7969,154.375 L192.25,154.375 L192.25,154.4844 C192.25,154.8906 192.2813,155.0469 192.3594,155.2031 C192.5156,155.4531 192.7969,155.6094 193.0938,155.6094 C193.3438,155.6094 193.6094,155.4688 193.7656,155.25 C193.8906,155.0938 193.9219,154.9375 193.9219,154.4844 L193.9219,152.5625 C193.9219,152.4063 193.9219,152.3594 193.9063,152.2031 C193.8438,151.7344 193.5313,151.4219 193.0781,151.4219 C192.8281,151.4219 192.5625,151.5625 192.3906,151.7813 C192.2813,151.9531 192.25,152.1094 192.25,152.5625 L192.25,152.6875 L190.7969,152.6875 L190.7969,150.2813 L194.7813,150.2813 L194.7813,151.1406 C194.7813,151.5469 194.8125,151.7188 194.8906,151.875 C195.0625,152.125 195.3438,152.2813 195.625,152.2813 C195.8906,152.2813 196.1563,152.1406 196.3281,151.9219 C196.4375,151.75 196.4688,151.6094 196.4688,151.1406 L196.4688,148.5938 L188.8438,148.5938 C188.4063,148.5938 188.2813,148.6094 188.125,148.7031 C187.875,148.8594 187.7188,149.1563 187.7188,149.4375 C187.7188,149.7188 187.8594,149.9688 188.0781,150.1406 C188.2344,150.25 188.4219,150.2813 188.8438,150.2813 L189.0938,150.2813 L189.0938,156.7969 L188.8438,156.7969 C188.4375,156.7969 188.2813,156.8125 188.125,156.9219 C187.875,157.0938 187.7188,157.3594 187.7188,157.6563 C187.7188,157.9219 187.8594,158.1719 188.0781,158.3281 C188.2188,158.4531 188.4531,158.5 188.8438,158.5 L196.8438,158.5 L196.8438,155.9219 C196.8438,155.4844 196.8125,155.3438 196.7344,155.1875 C196.5625,154.9375 196.2813,154.7813 196,154.7813 C195.7344,154.7813 195.4688,154.8906 195.2969,155.1406 C195.1875,155.2969 195.1563,155.4375 195.1563,155.9219 L195.1563,156.7969 L190.7969,156.7969 L190.7969,154.375 Z " fill="#000000"/><text fill="#000000" font-family="sans-serif" font-size="14" lengthAdjust="spacing" textLength="78" x="206" y="158.3467">LeaveType</text><line style="stroke:#181818;stroke-width:0.5;" x1="178" x2="286" y1="169.5" y2="169.5"/><ellipse cx="188" cy="183.1484" fill="none" rx="3" ry="3" style="stroke:#038048;stroke-width:1.0;"/><text fill="#000000" font-family="sans-serif" font-size="14" lengthAdjust="spacing" textLength="18" x="197" y="186.4951">CL</text><ellipse cx="188" cy="199.4453" fill="none" rx="3" ry="3" style="stroke:#038048;stroke-width:1.0;"/><text fill="#000000" font-family="sans-serif" font-size="14" lengthAdjust="spacing" textLength="17" x="197" y="202.792">SL</text><ellipse cx="188" cy="215.7422" fill="none" rx="3" ry="3" style="stroke:#038048;stroke-width:1.0;"/><text fill="#000000" font-family="sans-serif" font-size="14" lengthAdjust="spacing" textLength="18" x="197" y="219.0889">VL</text><line style="stroke:#181818;stroke-width:0.5;" x1="178" x2="286" y1="226.3906" y2="226.3906"/></g><!--class Employee--><g id="elem_Employee"><rect codeLine="11" fill="#F1F1F1" height="129.4844" id="Employee" rx="2.5" ry="2.5" style="stroke:#181818;stroke-width:0.5;" width="150" x="7" y="425"/><ellipse cx="42.7" cy="441" fill="#ADD1B2" rx="11" ry="11" style="stroke:#181818;stroke-width:1.0;"/><path d="M45.0438,436.6719 C44.1063,436.2344 43.5125,436.0938 42.6375,436.0938 C40.0125,436.0938 38.0125,438.1719 38.0125,440.8906 L38.0125,442.0156 C38.0125,444.5938 40.1219,446.4844 43.0125,446.4844 C44.2313,446.4844 45.3875,446.1875 46.1375,445.6406 C46.7156,445.2344 47.0438,444.7813 47.0438,444.3906 C47.0438,443.9375 46.6531,443.5469 46.1844,443.5469 C45.9656,443.5469 45.7625,443.625 45.575,443.8125 C45.1219,444.2969 45.1219,444.2969 44.9344,444.3906 C44.5125,444.6563 43.825,444.7813 43.0594,444.7813 C41.0125,444.7813 39.7156,443.6875 39.7156,441.9844 L39.7156,440.8906 C39.7156,439.1094 40.9656,437.7969 42.7,437.7969 C43.2781,437.7969 43.8875,437.9531 44.3563,438.2031 C44.8406,438.4844 45.0125,438.7031 45.1063,439.1094 C45.1688,439.5156 45.2,439.6406 45.3406,439.7656 C45.4813,439.9063 45.7156,440.0156 45.9344,440.0156 C46.2,440.0156 46.4656,439.875 46.6375,439.6563 C46.7469,439.5 46.7781,439.3125 46.7781,438.8906 L46.7781,437.4688 C46.7781,437.0313 46.7625,436.9063 46.6688,436.75 C46.5125,436.4844 46.2313,436.3438 45.9344,436.3438 C45.6375,436.3438 45.4344,436.4375 45.2156,436.75 L45.0438,436.6719 Z " fill="#000000"/><text fill="#000000" font-family="sans-serif" font-size="14" lengthAdjust="spacing" textLength="72" x="61.3" y="445.8467">Employee</text><line style="stroke:#181818;stroke-width:0.5;" x1="8" x2="156" y1="457" y2="457"/><rect fill="none" height="6" style="stroke:#C82930;stroke-width:1.0;" width="6" x="15" y="467.6484"/><text fill="#000000" font-family="sans-serif" font-size="14" lengthAdjust="spacing" textLength="89" x="27" y="473.9951">String Name</text><rect fill="none" height="6" style="stroke:#C82930;stroke-width:1.0;" width="6" x="15" y="483.9453"/><text fill="#000000" font-family="sans-serif" font-size="14" lengthAdjust="spacing" textLength="37" x="27" y="490.292">int id</text><line style="stroke:#181818;stroke-width:0.5;" x1="8" x2="156" y1="497.5938" y2="497.5938"/><ellipse cx="18" cy="511.2422" fill="#84BE84" rx="3" ry="3" style="stroke:#038048;stroke-width:1.0;"/><text fill="#000000" font-family="sans-serif" font-size="14" lengthAdjust="spacing" textLength="124" x="27" y="514.5889">String getName()</text><ellipse cx="18" cy="527.5391" fill="#84BE84" rx="3" ry="3" style="stroke:#038048;stroke-width:1.0;"/><text fill="#000000" font-family="sans-serif" font-size="14" lengthAdjust="spacing" textLength="72" x="27" y="530.8857">int getId()</text><ellipse cx="18" cy="543.8359" fill="#84BE84" rx="3" ry="3" style="stroke:#038048;stroke-width:1.0;"/><text fill="#000000" font-family="sans-serif" font-size="14" lengthAdjust="spacing" textLength="118" x="27" y="547.1826">String toString()</text></g><!--class Leave--><g id="elem_Leave"><rect codeLine="18" fill="#F1F1F1" height="357.6406" id="Leave" rx="2.5" ry="2.5" style="stroke:#181818;stroke-width:0.5;" width="269" x="549.5" y="7"/><ellipse cx="658.75" cy="23" fill="#ADD1B2" rx="11" ry="11" style="stroke:#181818;stroke-width:1.0;"/><path d="M661.0938,18.6719 C660.1563,18.2344 659.5625,18.0938 658.6875,18.0938 C656.0625,18.0938 654.0625,20.1719 654.0625,22.8906 L654.0625,24.0156 C654.0625,26.5938 656.1719,28.4844 659.0625,28.4844 C660.2813,28.4844 661.4375,28.1875 662.1875,27.6406 C662.7656,27.2344 663.0938,26.7813 663.0938,26.3906 C663.0938,25.9375 662.7031,25.5469 662.2344,25.5469 C662.0156,25.5469 661.8125,25.625 661.625,25.8125 C661.1719,26.2969 661.1719,26.2969 660.9844,26.3906 C660.5625,26.6563 659.875,26.7813 659.1094,26.7813 C657.0625,26.7813 655.7656,25.6875 655.7656,23.9844 L655.7656,22.8906 C655.7656,21.1094 657.0156,19.7969 658.75,19.7969 C659.3281,19.7969 659.9375,19.9531 660.4063,20.2031 C660.8906,20.4844 661.0625,20.7031 661.1563,21.1094 C661.2188,21.5156 661.25,21.6406 661.3906,21.7656 C661.5313,21.9063 661.7656,22.0156 661.9844,22.0156 C662.25,22.0156 662.5156,21.875 662.6875,21.6563 C662.7969,21.5 662.8281,21.3125 662.8281,20.8906 L662.8281,19.4688 C662.8281,19.0313 662.8125,18.9063 662.7188,18.75 C662.5625,18.4844 662.2813,18.3438 661.9844,18.3438 C661.6875,18.3438 661.4844,18.4375 661.2656,18.75 L661.0938,18.6719 Z " fill="#000000"/><text fill="#000000" font-family="sans-serif" font-size="14" lengthAdjust="spacing" textLength="42" x="679.25" y="27.8467">Leave</text><line style="stroke:#181818;stroke-width:0.5;" x1="550.5" x2="817.5" y1="39" y2="39"/><polygon fill="none" points="560.5,47.6484,564.5,51.6484,560.5,55.6484,556.5,51.6484" style="stroke:#B38D22;stroke-width:1.0;"/><text fill="#000000" font-family="sans-serif" font-size="14" lengthAdjust="spacing" textLength="148" x="569.5" y="55.9951">Employee employee</text><polygon fill="none" points="560.5,63.9453,564.5,67.9453,560.5,71.9453,556.5,67.9453" style="stroke:#B38D22;stroke-width:1.0;"/><text fill="#000000" font-family="sans-serif" font-size="14" lengthAdjust="spacing" textLength="176" x="569.5" y="72.292">LeaveStatus leaveStatus</text><polygon fill="none" points="560.5,80.2422,564.5,84.2422,560.5,88.2422,556.5,84.2422" style="stroke:#B38D22;stroke-width:1.0;"/><text fill="#000000" font-family="sans-serif" font-size="14" lengthAdjust="spacing" textLength="156" x="569.5" y="88.5889">LeaveType leaveType</text><polygon fill="none" points="560.5,96.5391,564.5,100.5391,560.5,104.5391,556.5,100.5391" style="stroke:#B38D22;stroke-width:1.0;"/><text fill="#000000" font-family="sans-serif" font-size="14" lengthAdjust="spacing" textLength="135" x="569.5" y="104.8857">String approvedBy</text><polygon fill="none" points="560.5,112.8359,564.5,116.8359,560.5,120.8359,556.5,116.8359" style="stroke:#B38D22;stroke-width:1.0;"/><text fill="#000000" font-family="sans-serif" font-size="14" lengthAdjust="spacing" textLength="166" x="569.5" y="121.1826">LocalDate requestDate</text><polygon fill="none" points="560.5,129.1328,564.5,133.1328,560.5,137.1328,556.5,133.1328" style="stroke:#B38D22;stroke-width:1.0;"/><text fill="#000000" font-family="sans-serif" font-size="14" lengthAdjust="spacing" textLength="174" x="569.5" y="137.4795">LocalDate approvalDate</text><polygon fill="none" points="560.5,145.4297,564.5,149.4297,560.5,153.4297,556.5,149.4297" style="stroke:#B38D22;stroke-width:1.0;"/><text fill="#000000" font-family="sans-serif" font-size="14" lengthAdjust="spacing" textLength="125" x="569.5" y="153.7764">String comments</text><line style="stroke:#181818;stroke-width:0.5;" x1="550.5" x2="817.5" y1="161.0781" y2="161.0781"/><ellipse cx="560.5" cy="174.7266" fill="#84BE84" rx="3" ry="3" style="stroke:#038048;stroke-width:1.0;"/><text fill="#000000" font-family="sans-serif" font-size="14" lengthAdjust="spacing" textLength="183" x="569.5" y="178.0732">Employee getEmployee()</text><ellipse cx="560.5" cy="191.0234" fill="#84BE84" rx="3" ry="3" style="stroke:#038048;stroke-width:1.0;"/><text fill="#000000" font-family="sans-serif" font-size="14" lengthAdjust="spacing" textLength="215" x="569.5" y="194.3701">LeaveStatus getLeaveStatus()</text><ellipse cx="560.5" cy="207.3203" fill="#84BE84" rx="3" ry="3" style="stroke:#038048;stroke-width:1.0;"/><text fill="#000000" font-family="sans-serif" font-size="14" lengthAdjust="spacing" textLength="243" x="569.5" y="210.667">void setLeaveStatus(LeaveStatus)</text><ellipse cx="560.5" cy="223.6172" fill="#84BE84" rx="3" ry="3" style="stroke:#038048;stroke-width:1.0;"/><text fill="#000000" font-family="sans-serif" font-size="14" lengthAdjust="spacing" textLength="195" x="569.5" y="226.9639">LeaveType getLeaveType()</text><ellipse cx="560.5" cy="239.9141" fill="#84BE84" rx="3" ry="3" style="stroke:#038048;stroke-width:1.0;"/><text fill="#000000" font-family="sans-serif" font-size="14" lengthAdjust="spacing" textLength="172" x="569.5" y="243.2607">String getApprovedBy()</text><ellipse cx="560.5" cy="256.2109" fill="#84BE84" rx="3" ry="3" style="stroke:#038048;stroke-width:1.0;"/><text fill="#000000" font-family="sans-serif" font-size="14" lengthAdjust="spacing" textLength="200" x="569.5" y="259.5576">void setApprovedBy(String)</text><ellipse cx="560.5" cy="272.5078" fill="#84BE84" rx="3" ry="3" style="stroke:#038048;stroke-width:1.0;"/><text fill="#000000" font-family="sans-serif" font-size="14" lengthAdjust="spacing" textLength="205" x="569.5" y="275.8545">LocalDate getRequestDate()</text><ellipse cx="560.5" cy="288.8047" fill="#84BE84" rx="3" ry="3" style="stroke:#038048;stroke-width:1.0;"/><text fill="#000000" font-family="sans-serif" font-size="14" lengthAdjust="spacing" textLength="211" x="569.5" y="292.1514">LocalDate getApprovalDate()</text><ellipse cx="560.5" cy="305.1016" fill="#84BE84" rx="3" ry="3" style="stroke:#038048;stroke-width:1.0;"/><text fill="#000000" font-family="sans-serif" font-size="14" lengthAdjust="spacing" textLength="239" x="569.5" y="308.4482">void setApprovalDate(LocalDate)</text><ellipse cx="560.5" cy="321.3984" fill="#84BE84" rx="3" ry="3" style="stroke:#038048;stroke-width:1.0;"/><text fill="#000000" font-family="sans-serif" font-size="14" lengthAdjust="spacing" textLength="162" x="569.5" y="324.7451">String getComments()</text><ellipse cx="560.5" cy="337.6953" fill="#84BE84" rx="3" ry="3" style="stroke:#038048;stroke-width:1.0;"/><text fill="#000000" font-family="sans-serif" font-size="14" lengthAdjust="spacing" textLength="190" x="569.5" y="341.042">void setComments(String)</text><ellipse cx="560.5" cy="353.9922" fill="#84BE84" rx="3" ry="3" style="stroke:#038048;stroke-width:1.0;"/><text fill="#000000" font-family="sans-serif" font-size="14" lengthAdjust="spacing" textLength="118" x="569.5" y="357.3389">String toString()</text></g><!--class SickLeave--><g id="elem_SickLeave"><rect codeLine="39" fill="#F1F1F1" height="80.5938" id="SickLeave" rx="2.5" ry="2.5" style="stroke:#181818;stroke-width:0.5;" width="175" x="386.5" y="449"/><ellipse cx="433.75" cy="465" fill="#ADD1B2" rx="11" ry="11" style="stroke:#181818;stroke-width:1.0;"/><path d="M436.0938,460.6719 C435.1563,460.2344 434.5625,460.0938 433.6875,460.0938 C431.0625,460.0938 429.0625,462.1719 429.0625,464.8906 L429.0625,466.0156 C429.0625,468.5938 431.1719,470.4844 434.0625,470.4844 C435.2813,470.4844 436.4375,470.1875 437.1875,469.6406 C437.7656,469.2344 438.0938,468.7813 438.0938,468.3906 C438.0938,467.9375 437.7031,467.5469 437.2344,467.5469 C437.0156,467.5469 436.8125,467.625 436.625,467.8125 C436.1719,468.2969 436.1719,468.2969 435.9844,468.3906 C435.5625,468.6563 434.875,468.7813 434.1094,468.7813 C432.0625,468.7813 430.7656,467.6875 430.7656,465.9844 L430.7656,464.8906 C430.7656,463.1094 432.0156,461.7969 433.75,461.7969 C434.3281,461.7969 434.9375,461.9531 435.4063,462.2031 C435.8906,462.4844 436.0625,462.7031 436.1563,463.1094 C436.2188,463.5156 436.25,463.6406 436.3906,463.7656 C436.5313,463.9063 436.7656,464.0156 436.9844,464.0156 C437.25,464.0156 437.5156,463.875 437.6875,463.6563 C437.7969,463.5 437.8281,463.3125 437.8281,462.8906 L437.8281,461.4688 C437.8281,461.0313 437.8125,460.9063 437.7188,460.75 C437.5625,460.4844 437.2813,460.3438 436.9844,460.3438 C436.6875,460.3438 436.4844,460.4375 436.2656,460.75 L436.0938,460.6719 Z " fill="#000000"/><text fill="#000000" font-family="sans-serif" font-size="14" lengthAdjust="spacing" textLength="72" x="454.25" y="469.8467">SickLeave</text><line style="stroke:#181818;stroke-width:0.5;" x1="387.5" x2="560.5" y1="481" y2="481"/><polygon fill="none" points="397.5,489.6484,401.5,493.6484,397.5,497.6484,393.5,493.6484" style="stroke:#B38D22;stroke-width:1.0;"/><text fill="#000000" font-family="sans-serif" font-size="14" lengthAdjust="spacing" textLength="149" x="406.5" y="497.9951">LocalDate leaveDate</text><line style="stroke:#181818;stroke-width:0.5;" x1="387.5" x2="560.5" y1="505.2969" y2="505.2969"/><ellipse cx="397.5" cy="518.9453" fill="#84BE84" rx="3" ry="3" style="stroke:#038048;stroke-width:1.0;"/><text fill="#000000" font-family="sans-serif" font-size="14" lengthAdjust="spacing" textLength="118" x="406.5" y="522.292">String toString()</text></g><!--class CasualLeave--><g id="elem_CasualLeave"><rect codeLine="43" fill="#F1F1F1" height="96.8906" id="CasualLeave" rx="2.5" ry="2.5" style="stroke:#181818;stroke-width:0.5;" width="175" x="596.5" y="441"/><ellipse cx="636.7" cy="457" fill="#ADD1B2" rx="11" ry="11" style="stroke:#181818;stroke-width:1.0;"/><path d="M639.0438,452.6719 C638.1063,452.2344 637.5125,452.0938 636.6375,452.0938 C634.0125,452.0938 632.0125,454.1719 632.0125,456.8906 L632.0125,458.0156 C632.0125,460.5938 634.1219,462.4844 637.0125,462.4844 C638.2313,462.4844 639.3875,462.1875 640.1375,461.6406 C640.7156,461.2344 641.0438,460.7813 641.0438,460.3906 C641.0438,459.9375 640.6531,459.5469 640.1844,459.5469 C639.9656,459.5469 639.7625,459.625 639.575,459.8125 C639.1219,460.2969 639.1219,460.2969 638.9344,460.3906 C638.5125,460.6563 637.825,460.7813 637.0594,460.7813 C635.0125,460.7813 633.7156,459.6875 633.7156,457.9844 L633.7156,456.8906 C633.7156,455.1094 634.9656,453.7969 636.7,453.7969 C637.2781,453.7969 637.8875,453.9531 638.3563,454.2031 C638.8406,454.4844 639.0125,454.7031 639.1063,455.1094 C639.1688,455.5156 639.2,455.6406 639.3406,455.7656 C639.4813,455.9063 639.7156,456.0156 639.9344,456.0156 C640.2,456.0156 640.4656,455.875 640.6375,455.6563 C640.7469,455.5 640.7781,455.3125 640.7781,454.8906 L640.7781,453.4688 C640.7781,453.0313 640.7625,452.9063 640.6688,452.75 C640.5125,452.4844 640.2313,452.3438 639.9344,452.3438 C639.6375,452.3438 639.4344,452.4375 639.2156,452.75 L639.0438,452.6719 Z " fill="#000000"/><text fill="#000000" font-family="sans-serif" font-size="14" lengthAdjust="spacing" textLength="87" x="656.3" y="461.8467">CasualLeave</text><line style="stroke:#181818;stroke-width:0.5;" x1="597.5" x2="770.5" y1="473" y2="473"/><polygon fill="none" points="607.5,481.6484,611.5,485.6484,607.5,489.6484,603.5,485.6484" style="stroke:#B38D22;stroke-width:1.0;"/><text fill="#000000" font-family="sans-serif" font-size="14" lengthAdjust="spacing" textLength="149" x="616.5" y="489.9951">LocalDate leaveDate</text><polygon fill="none" points="607.5,497.9453,611.5,501.9453,607.5,505.9453,603.5,501.9453" style="stroke:#B38D22;stroke-width:1.0;"/><text fill="#000000" font-family="sans-serif" font-size="14" lengthAdjust="spacing" textLength="138" x="616.5" y="506.292">String leaveReason</text><line style="stroke:#181818;stroke-width:0.5;" x1="597.5" x2="770.5" y1="513.5938" y2="513.5938"/><ellipse cx="607.5" cy="527.2422" fill="#84BE84" rx="3" ry="3" style="stroke:#038048;stroke-width:1.0;"/><text fill="#000000" font-family="sans-serif" font-size="14" lengthAdjust="spacing" textLength="118" x="616.5" y="530.5889">String toString()</text></g><!--class VacationLeave--><g id="elem_VacationLeave"><rect codeLine="48" fill="#F1F1F1" height="96.8906" id="VacationLeave" rx="2.5" ry="2.5" style="stroke:#181818;stroke-width:0.5;" width="172" x="807" y="441"/><ellipse cx="837.75" cy="457" fill="#ADD1B2" rx="11" ry="11" style="stroke:#181818;stroke-width:1.0;"/><path d="M840.0938,452.6719 C839.1563,452.2344 838.5625,452.0938 837.6875,452.0938 C835.0625,452.0938 833.0625,454.1719 833.0625,456.8906 L833.0625,458.0156 C833.0625,460.5938 835.1719,462.4844 838.0625,462.4844 C839.2813,462.4844 840.4375,462.1875 841.1875,461.6406 C841.7656,461.2344 842.0938,460.7813 842.0938,460.3906 C842.0938,459.9375 841.7031,459.5469 841.2344,459.5469 C841.0156,459.5469 840.8125,459.625 840.625,459.8125 C840.1719,460.2969 840.1719,460.2969 839.9844,460.3906 C839.5625,460.6563 838.875,460.7813 838.1094,460.7813 C836.0625,460.7813 834.7656,459.6875 834.7656,457.9844 L834.7656,456.8906 C834.7656,455.1094 836.0156,453.7969 837.75,453.7969 C838.3281,453.7969 838.9375,453.9531 839.4063,454.2031 C839.8906,454.4844 840.0625,454.7031 840.1563,455.1094 C840.2188,455.5156 840.25,455.6406 840.3906,455.7656 C840.5313,455.9063 840.7656,456.0156 840.9844,456.0156 C841.25,456.0156 841.5156,455.875 841.6875,455.6563 C841.7969,455.5 841.8281,455.3125 841.8281,454.8906 L841.8281,453.4688 C841.8281,453.0313 841.8125,452.9063 841.7188,452.75 C841.5625,452.4844 841.2813,452.3438 840.9844,452.3438 C840.6875,452.3438 840.4844,452.4375 840.2656,452.75 L840.0938,452.6719 Z " fill="#000000"/><text fill="#000000" font-family="sans-serif" font-size="14" lengthAdjust="spacing" textLength="105" x="855.25" y="461.8467">VacationLeave</text><line style="stroke:#181818;stroke-width:0.5;" x1="808" x2="978" y1="473" y2="473"/><polygon fill="none" points="818,481.6484,822,485.6484,818,489.6484,814,485.6484" style="stroke:#B38D22;stroke-width:1.0;"/><text fill="#000000" font-family="sans-serif" font-size="14" lengthAdjust="spacing" textLength="146" x="827" y="489.9951">LocalDate startDate</text><polygon fill="none" points="818,497.9453,822,501.9453,818,505.9453,814,501.9453" style="stroke:#B38D22;stroke-width:1.0;"/><text fill="#000000" font-family="sans-serif" font-size="14" lengthAdjust="spacing" textLength="138" x="827" y="506.292">LocalDate endDate</text><line style="stroke:#181818;stroke-width:0.5;" x1="808" x2="978" y1="513.5938" y2="513.5938"/><ellipse cx="818" cy="527.2422" fill="#84BE84" rx="3" ry="3" style="stroke:#038048;stroke-width:1.0;"/><text fill="#000000" font-family="sans-serif" font-size="14" lengthAdjust="spacing" textLength="118" x="827" y="530.5889">String toString()</text></g><!--class LeaveHandler--><g id="elem_LeaveHandler"><rect codeLine="53" fill="#F1F1F1" height="80.5938" id="LeaveHandler" rx="2.5" ry="2.5" style="stroke:#181818;stroke-width:0.5;" width="279" x="1014.5" y="145.5"/><ellipse cx="1099.75" cy="161.5" fill="#B4A7E5" rx="11" ry="11" style="stroke:#181818;stroke-width:1.0;"/><path d="M1100.7031,158.2813 L1102.4219,158.2813 C1102.8125,158.2813 1103,158.25 1103.125,158.1719 C1103.3906,158.0156 1103.5313,157.7344 1103.5313,157.4375 C1103.5313,157.1719 1103.4219,156.9063 1103.1875,156.7344 C1103.0156,156.625 1102.875,156.5938 1102.4219,156.5938 L1097.2813,156.5938 C1096.8438,156.5938 1096.7188,156.6094 1096.5625,156.7031 C1096.3125,156.8594 1096.1563,157.1563 1096.1563,157.4375 C1096.1563,157.7188 1096.2969,157.9688 1096.5156,158.1406 C1096.6719,158.25 1096.8594,158.2813 1097.2813,158.2813 L1099,158.2813 L1099,164.7969 L1097.2813,164.7969 C1096.8438,164.7969 1096.7188,164.8125 1096.5625,164.9219 C1096.3125,165.0781 1096.1563,165.3594 1096.1563,165.6563 C1096.1563,165.9063 1096.2969,166.1719 1096.5156,166.3281 C1096.6719,166.4531 1096.875,166.5 1097.2813,166.5 L1102.4219,166.5 C1103.1719,166.5 1103.5313,166.2188 1103.5313,165.6563 C1103.5313,165.375 1103.4219,165.125 1103.1875,164.9531 C1103.0156,164.8281 1102.875,164.7969 1102.4219,164.7969 L1100.7031,164.7969 L1100.7031,158.2813 Z " fill="#000000"/><text fill="#000000" font-family="sans-serif" font-size="14" font-style="italic" lengthAdjust="spacing" textLength="100" x="1120.25" y="166.3467">LeaveHandler</text><line style="stroke:#181818;stroke-width:0.5;" x1="1015.5" x2="1292.5" y1="177.5" y2="177.5"/><line style="stroke:#181818;stroke-width:0.5;" x1="1015.5" x2="1292.5" y1="185.5" y2="185.5"/><polygon fill="#4177AF" points="1025.5,195.1484,1021.5,201.1484,1029.5,201.1484" style="stroke:#1963A0;stroke-width:1.0;"/><text fill="#000000" font-family="sans-serif" font-size="14" lengthAdjust="spacing" textLength="253" x="1034.5" y="202.4951">void setNextHandler(LeaveHandler)</text><polygon fill="#4177AF" points="1025.5,211.4453,1021.5,217.4453,1029.5,217.4453" style="stroke:#1963A0;stroke-width:1.0;"/><text fill="#000000" font-family="sans-serif" font-size="14" lengthAdjust="spacing" textLength="176" x="1034.5" y="218.792">void handleLeave(Leave)</text></g><!--class BaseLeaveHandler--><g id="elem_BaseLeaveHandler"><rect codeLine="57" fill="#F1F1F1" height="129.4844" id="BaseLeaveHandler" rx="2.5" ry="2.5" style="stroke:#181818;stroke-width:0.5;" width="279" x="1014.5" y="425"/><ellipse cx="1082.25" cy="441" fill="#A9DCDF" rx="11" ry="11" style="stroke:#181818;stroke-width:1.0;"/><path d="M1084.3281,442.8125 L1084.7188,443.7969 L1084.3281,443.7969 C1083.875,443.7969 1083.7656,443.8125 1083.6094,443.9219 C1083.3594,444.0781 1083.2031,444.3594 1083.2031,444.6563 C1083.2031,444.9219 1083.3438,445.1719 1083.5625,445.3281 C1083.7031,445.4531 1083.9063,445.5 1084.3281,445.5 L1086.6875,445.5 C1087.0469,445.5 1087.2656,445.4688 1087.4063,445.375 C1087.6563,445.2344 1087.8125,444.9375 1087.8125,444.6563 C1087.8125,444.375 1087.6719,444.125 1087.4531,443.9688 C1087.2813,443.8281 1087.125,443.7969 1086.6563,443.7969 L1083.2656,435.5938 L1079.5938,435.5938 C1079.1406,435.5938 1079.0156,435.6094 1078.8594,435.7031 C1078.6094,435.875 1078.4531,436.1563 1078.4531,436.4375 C1078.4531,436.7188 1078.5938,436.9688 1078.8125,437.1406 C1078.9844,437.25 1079.1563,437.2813 1079.5938,437.2813 L1080.6719,437.2813 L1078.0313,443.7969 C1077.6094,443.7969 1077.4531,443.8125 1077.2969,443.9219 C1077.0469,444.0781 1076.8906,444.3594 1076.8906,444.6563 C1076.8906,445.2188 1077.2656,445.5 1078.0156,445.5 L1080.2813,445.5 C1080.6406,445.5 1080.8594,445.4688 1080.9844,445.375 C1081.25,445.2344 1081.3906,444.9375 1081.3906,444.6563 C1081.3906,444.375 1081.2656,444.125 1081.0469,443.9531 C1080.875,443.8281 1080.7344,443.7969 1080.2813,443.7969 L1079.8906,443.7969 L1080.2813,442.8125 L1084.3281,442.8125 Z M1083.625,441.1094 L1080.9531,441.1094 L1082.2969,437.8438 L1083.625,441.1094 Z " fill="#000000"/><text fill="#000000" font-family="sans-serif" font-size="14" font-style="italic" lengthAdjust="spacing" textLength="135" x="1102.75" y="445.8467">BaseLeaveHandler</text><line style="stroke:#181818;stroke-width:0.5;" x1="1015.5" x2="1292.5" y1="457" y2="457"/><rect fill="none" height="6" style="stroke:#C82930;stroke-width:1.0;" width="6" x="1022.5" y="467.6484"/><text fill="#000000" font-family="sans-serif" font-size="14" lengthAdjust="spacing" textLength="189" x="1034.5" y="473.9951">LeaveHandler nextHandler</text><line style="stroke:#181818;stroke-width:0.5;" x1="1015.5" x2="1292.5" y1="481.2969" y2="481.2969"/><ellipse cx="1025.5" cy="494.9453" fill="#84BE84" rx="3" ry="3" style="stroke:#038048;stroke-width:1.0;"/><text fill="#000000" font-family="sans-serif" font-size="14" lengthAdjust="spacing" textLength="253" x="1034.5" y="498.292">void setNextHandler(LeaveHandler)</text><ellipse cx="1025.5" cy="511.2422" fill="#84BE84" rx="3" ry="3" style="stroke:#038048;stroke-width:1.0;"/><text fill="#000000" font-family="sans-serif" font-size="14" lengthAdjust="spacing" textLength="176" x="1034.5" y="514.5889">void handleLeave(Leave)</text><polygon fill="#FFFF44" points="1025.5,522.5391,1029.5,526.5391,1025.5,530.5391,1021.5,526.5391" style="stroke:#B38D22;stroke-width:1.0;"/><text fill="#000000" font-family="sans-serif" font-size="14" font-style="italic" lengthAdjust="spacing" textLength="192" x="1034.5" y="530.8857">boolean canHandle(Leave)</text><polygon fill="#FFFF44" points="1025.5,538.8359,1029.5,542.8359,1025.5,546.8359,1021.5,542.8359" style="stroke:#B38D22;stroke-width:1.0;"/><text fill="#000000" font-family="sans-serif" font-size="14" font-style="italic" lengthAdjust="spacing" textLength="185" x="1034.5" y="547.1826">void processLeave(Leave)</text></g><!--class TechLeadLeaveHandler--><g id="elem_TechLeadLeaveHandler"><rect codeLine="64" fill="#F1F1F1" height="80.5938" id="TechLeadLeaveHandler" rx="2.5" ry="2.5" style="stroke:#181818;stroke-width:0.5;" width="214" x="798" y="614"/><ellipse cx="820.2" cy="630" fill="#ADD1B2" rx="11" ry="11" style="stroke:#181818;stroke-width:1.0;"/><path d="M822.5438,625.6719 C821.6063,625.2344 821.0125,625.0938 820.1375,625.0938 C817.5125,625.0938 815.5125,627.1719 815.5125,629.8906 L815.5125,631.0156 C815.5125,633.5938 817.6219,635.4844 820.5125,635.4844 C821.7313,635.4844 822.8875,635.1875 823.6375,634.6406 C824.2156,634.2344 824.5438,633.7813 824.5438,633.3906 C824.5438,632.9375 824.1531,632.5469 823.6844,632.5469 C823.4656,632.5469 823.2625,632.625 823.075,632.8125 C822.6219,633.2969 822.6219,633.2969 822.4344,633.3906 C822.0125,633.6563 821.325,633.7813 820.5594,633.7813 C818.5125,633.7813 817.2156,632.6875 817.2156,630.9844 L817.2156,629.8906 C817.2156,628.1094 818.4656,626.7969 820.2,626.7969 C820.7781,626.7969 821.3875,626.9531 821.8563,627.2031 C822.3406,627.4844 822.5125,627.7031 822.6063,628.1094 C822.6688,628.5156 822.7,628.6406 822.8406,628.7656 C822.9813,628.9063 823.2156,629.0156 823.4344,629.0156 C823.7,629.0156 823.9656,628.875 824.1375,628.6563 C824.2469,628.5 824.2781,628.3125 824.2781,627.8906 L824.2781,626.4688 C824.2781,626.0313 824.2625,625.9063 824.1688,625.75 C824.0125,625.4844 823.7313,625.3438 823.4344,625.3438 C823.1375,625.3438 822.9344,625.4375 822.7156,625.75 L822.5438,625.6719 Z " fill="#000000"/><text fill="#000000" font-family="sans-serif" font-size="14" lengthAdjust="spacing" textLength="166" x="835.8" y="634.8467">TechLeadLeaveHandler</text><line style="stroke:#181818;stroke-width:0.5;" x1="799" x2="1011" y1="646" y2="646"/><line style="stroke:#181818;stroke-width:0.5;" x1="799" x2="1011" y1="654" y2="654"/><ellipse cx="809" cy="667.6484" fill="#84BE84" rx="3" ry="3" style="stroke:#038048;stroke-width:1.0;"/><text fill="#000000" font-family="sans-serif" font-size="14" lengthAdjust="spacing" textLength="188" x="818" y="670.9951">boolean canHandle(Leave)</text><ellipse cx="809" cy="683.9453" fill="#84BE84" rx="3" ry="3" style="stroke:#038048;stroke-width:1.0;"/><text fill="#000000" font-family="sans-serif" font-size="14" lengthAdjust="spacing" textLength="184" x="818" y="687.292">void processLeave(Leave)</text></g><!--class ProjectManagerHandler--><g id="elem_ProjectManagerHandler"><rect codeLine="68" fill="#F1F1F1" height="80.5938" id="ProjectManagerHandler" rx="2.5" ry="2.5" style="stroke:#181818;stroke-width:0.5;" width="214" x="1047" y="614"/><ellipse cx="1068.3" cy="630" fill="#ADD1B2" rx="11" ry="11" style="stroke:#181818;stroke-width:1.0;"/><path d="M1070.6438,625.6719 C1069.7063,625.2344 1069.1125,625.0938 1068.2375,625.0938 C1065.6125,625.0938 1063.6125,627.1719 1063.6125,629.8906 L1063.6125,631.0156 C1063.6125,633.5938 1065.7219,635.4844 1068.6125,635.4844 C1069.8313,635.4844 1070.9875,635.1875 1071.7375,634.6406 C1072.3156,634.2344 1072.6438,633.7813 1072.6438,633.3906 C1072.6438,632.9375 1072.2531,632.5469 1071.7844,632.5469 C1071.5656,632.5469 1071.3625,632.625 1071.175,632.8125 C1070.7219,633.2969 1070.7219,633.2969 1070.5344,633.3906 C1070.1125,633.6563 1069.425,633.7813 1068.6594,633.7813 C1066.6125,633.7813 1065.3156,632.6875 1065.3156,630.9844 L1065.3156,629.8906 C1065.3156,628.1094 1066.5656,626.7969 1068.3,626.7969 C1068.8781,626.7969 1069.4875,626.9531 1069.9563,627.2031 C1070.4406,627.4844 1070.6125,627.7031 1070.7063,628.1094 C1070.7688,628.5156 1070.8,628.6406 1070.9406,628.7656 C1071.0813,628.9063 1071.3156,629.0156 1071.5344,629.0156 C1071.8,629.0156 1072.0656,628.875 1072.2375,628.6563 C1072.3469,628.5 1072.3781,628.3125 1072.3781,627.8906 L1072.3781,626.4688 C1072.3781,626.0313 1072.3625,625.9063 1072.2688,625.75 C1072.1125,625.4844 1071.8313,625.3438 1071.5344,625.3438 C1071.2375,625.3438 1071.0344,625.4375 1070.8156,625.75 L1070.6438,625.6719 Z " fill="#000000"/><text fill="#000000" font-family="sans-serif" font-size="14" lengthAdjust="spacing" textLength="168" x="1083.7" y="634.8467">ProjectManagerHandler</text><line style="stroke:#181818;stroke-width:0.5;" x1="1048" x2="1260" y1="646" y2="646"/><line style="stroke:#181818;stroke-width:0.5;" x1="1048" x2="1260" y1="654" y2="654"/><ellipse cx="1058" cy="667.6484" fill="#84BE84" rx="3" ry="3" style="stroke:#038048;stroke-width:1.0;"/><text fill="#000000" font-family="sans-serif" font-size="14" lengthAdjust="spacing" textLength="188" x="1067" y="670.9951">boolean canHandle(Leave)</text><ellipse cx="1058" cy="683.9453" fill="#84BE84" rx="3" ry="3" style="stroke:#038048;stroke-width:1.0;"/><text fill="#000000" font-family="sans-serif" font-size="14" lengthAdjust="spacing" textLength="184" x="1067" y="687.292">void processLeave(Leave)</text></g><!--class DirectorLeaveHandler--><g id="elem_DirectorLeaveHandler"><rect codeLine="72" fill="#F1F1F1" height="80.5938" id="DirectorLeaveHandler" rx="2.5" ry="2.5" style="stroke:#181818;stroke-width:0.5;" width="214" x="1296" y="614"/><ellipse cx="1322.25" cy="630" fill="#ADD1B2" rx="11" ry="11" style="stroke:#181818;stroke-width:1.0;"/><path d="M1324.5938,625.6719 C1323.6563,625.2344 1323.0625,625.0938 1322.1875,625.0938 C1319.5625,625.0938 1317.5625,627.1719 1317.5625,629.8906 L1317.5625,631.0156 C1317.5625,633.5938 1319.6719,635.4844 1322.5625,635.4844 C1323.7813,635.4844 1324.9375,635.1875 1325.6875,634.6406 C1326.2656,634.2344 1326.5938,633.7813 1326.5938,633.3906 C1326.5938,632.9375 1326.2031,632.5469 1325.7344,632.5469 C1325.5156,632.5469 1325.3125,632.625 1325.125,632.8125 C1324.6719,633.2969 1324.6719,633.2969 1324.4844,633.3906 C1324.0625,633.6563 1323.375,633.7813 1322.6094,633.7813 C1320.5625,633.7813 1319.2656,632.6875 1319.2656,630.9844 L1319.2656,629.8906 C1319.2656,628.1094 1320.5156,626.7969 1322.25,626.7969 C1322.8281,626.7969 1323.4375,626.9531 1323.9063,627.2031 C1324.3906,627.4844 1324.5625,627.7031 1324.6563,628.1094 C1324.7188,628.5156 1324.75,628.6406 1324.8906,628.7656 C1325.0313,628.9063 1325.2656,629.0156 1325.4844,629.0156 C1325.75,629.0156 1326.0156,628.875 1326.1875,628.6563 C1326.2969,628.5 1326.3281,628.3125 1326.3281,627.8906 L1326.3281,626.4688 C1326.3281,626.0313 1326.3125,625.9063 1326.2188,625.75 C1326.0625,625.4844 1325.7813,625.3438 1325.4844,625.3438 C1325.1875,625.3438 1324.9844,625.4375 1324.7656,625.75 L1324.5938,625.6719 Z " fill="#000000"/><text fill="#000000" font-family="sans-serif" font-size="14" lengthAdjust="spacing" textLength="157" x="1338.75" y="634.8467">DirectorLeaveHandler</text><line style="stroke:#181818;stroke-width:0.5;" x1="1297" x2="1509" y1="646" y2="646"/><line style="stroke:#181818;stroke-width:0.5;" x1="1297" x2="1509" y1="654" y2="654"/><ellipse cx="1307" cy="667.6484" fill="#84BE84" rx="3" ry="3" style="stroke:#038048;stroke-width:1.0;"/><text fill="#000000" font-family="sans-serif" font-size="14" lengthAdjust="spacing" textLength="188" x="1316" y="670.9951">boolean canHandle(Leave)</text><ellipse cx="1307" cy="683.9453" fill="#84BE84" rx="3" ry="3" style="stroke:#038048;stroke-width:1.0;"/><text fill="#000000" font-family="sans-serif" font-size="14" lengthAdjust="spacing" textLength="184" x="1316" y="687.292">void processLeave(Leave)</text></g><!--class Main--><g id="elem_Main"><rect codeLine="76" fill="#F1F1F1" height="64.2969" id="Main" rx="2.5" ry="2.5" style="stroke:#181818;stroke-width:0.5;" width="159" x="192.5" y="457.5"/><ellipse cx="251.25" cy="473.5" fill="#ADD1B2" rx="11" ry="11" style="stroke:#181818;stroke-width:1.0;"/><path d="M253.5938,469.1719 C252.6563,468.7344 252.0625,468.5938 251.1875,468.5938 C248.5625,468.5938 246.5625,470.6719 246.5625,473.3906 L246.5625,474.5156 C246.5625,477.0938 248.6719,478.9844 251.5625,478.9844 C252.7813,478.9844 253.9375,478.6875 254.6875,478.1406 C255.2656,477.7344 255.5938,477.2813 255.5938,476.8906 C255.5938,476.4375 255.2031,476.0469 254.7344,476.0469 C254.5156,476.0469 254.3125,476.125 254.125,476.3125 C253.6719,476.7969 253.6719,476.7969 253.4844,476.8906 C253.0625,477.1563 252.375,477.2813 251.6094,477.2813 C249.5625,477.2813 248.2656,476.1875 248.2656,474.4844 L248.2656,473.3906 C248.2656,471.6094 249.5156,470.2969 251.25,470.2969 C251.8281,470.2969 252.4375,470.4531 252.9063,470.7031 C253.3906,470.9844 253.5625,471.2031 253.6563,471.6094 C253.7188,472.0156 253.75,472.1406 253.8906,472.2656 C254.0313,472.4063 254.2656,472.5156 254.4844,472.5156 C254.75,472.5156 255.0156,472.375 255.1875,472.1563 C255.2969,472 255.3281,471.8125 255.3281,471.3906 L255.3281,469.9688 C255.3281,469.5313 255.3125,469.4063 255.2188,469.25 C255.0625,468.9844 254.7813,468.8438 254.4844,468.8438 C254.1875,468.8438 253.9844,468.9375 253.7656,469.25 L253.5938,469.1719 Z " fill="#000000"/><text fill="#000000" font-family="sans-serif" font-size="14" lengthAdjust="spacing" textLength="33" x="271.75" y="478.3467">Main</text><line style="stroke:#181818;stroke-width:0.5;" x1="193.5" x2="350.5" y1="489.5" y2="489.5"/><line style="stroke:#181818;stroke-width:0.5;" x1="193.5" x2="350.5" y1="497.5" y2="497.5"/><ellipse cx="203.5" cy="511.1484" fill="#84BE84" rx="3" ry="3" style="stroke:#038048;stroke-width:1.0;"/><text fill="#000000" font-family="sans-serif" font-size="14" lengthAdjust="spacing" text-decoration="underline" textLength="133" x="212.5" y="514.4951">void main(String[])</text></g><!--reverse link Leave to SickLeave--><g id="link_Leave_SickLeave"><path codeLine="81" d="M548.061,382.169 C530.564,407.291 514.325,430.606 501.539,448.963 " fill="none" id="Leave-backto-SickLeave" style="stroke:#181818;stroke-width:1.0;"/><polygon fill="none" points="542.543,377.844,559.718,365.434,554.031,385.846,542.543,377.844" style="stroke:#181818;stroke-width:1.0;"/></g><!--reverse link Leave to CasualLeave--><g id="link_Leave_CasualLeave"><path codeLine="82" d="M684,385.604 C684,405.842 684,424.796 684,440.785 " fill="none" id="Leave-backto-CasualLeave" style="stroke:#181818;stroke-width:1.0;"/><polygon fill="none" points="677,385.434,684,365.434,691,385.434,677,385.434" style="stroke:#181818;stroke-width:1.0;"/></g><!--reverse link Leave to VacationLeave--><g id="link_Leave_VacationLeave"><path codeLine="83" d="M819.265,382.131 C834.197,403.672 848.209,423.885 859.924,440.785 " fill="none" id="Leave-backto-VacationLeave" style="stroke:#181818;stroke-width:1.0;"/><polygon fill="none" points="813.331,385.858,807.69,365.434,824.837,377.883,813.331,385.858" style="stroke:#181818;stroke-width:1.0;"/></g><!--reverse link LeaveHandler to BaseLeaveHandler--><g id="link_LeaveHandler_BaseLeaveHandler"><path codeLine="84" d="M1154,246.953 C1154,298.456 1154,372.495 1154,425 " fill="none" id="LeaveHandler-backto-BaseLeaveHandler" style="stroke:#181818;stroke-width:1.0;stroke-dasharray:7.0,7.0;"/><polygon fill="none" points="1147,246.726,1154,226.726,1161,246.726,1147,246.726" style="stroke:#181818;stroke-width:1.0;"/></g><!--reverse link BaseLeaveHandler to TechLeadLeaveHandler--><g id="link_BaseLeaveHandler_TechLeadLeaveHandler"><path codeLine="85" d="M1039.57,565.407 C1014.04,582.119 987.942,599.2044 965.607,613.8256 " fill="none" id="BaseLeaveHandler-backto-TechLeadLeaveHandler" style="stroke:#181818;stroke-width:1.0;"/><polygon fill="none" points="1036.09,559.318,1056.66,554.22,1043.76,571.031,1036.09,559.318" style="stroke:#181818;stroke-width:1.0;"/></g><!--reverse link BaseLeaveHandler to ProjectManagerHandler--><g id="link_BaseLeaveHandler_ProjectManagerHandler"><path codeLine="86" d="M1154,574.895 C1154,588.437 1154,601.873 1154,613.7039 " fill="none" id="BaseLeaveHandler-backto-ProjectManagerHandler" style="stroke:#181818;stroke-width:1.0;"/><polygon fill="none" points="1147,574.454,1154,554.454,1161,574.454,1147,574.454" style="stroke:#181818;stroke-width:1.0;"/></g><!--reverse link BaseLeaveHandler to DirectorLeaveHandler--><g id="link_BaseLeaveHandler_DirectorLeaveHandler"><path codeLine="87" d="M1268.43,565.407 C1293.96,582.119 1320.06,599.2044 1342.39,613.8256 " fill="none" id="BaseLeaveHandler-backto-DirectorLeaveHandler" style="stroke:#181818;stroke-width:1.0;"/><polygon fill="none" points="1264.24,571.031,1251.34,554.22,1271.91,559.318,1264.24,571.031" style="stroke:#181818;stroke-width:1.0;"/></g><!--SRC=[hLDDR-8m4BtdLrZgXGhHNz0BXKZT5QK847keUfWwipJRn6PjWnPHzhTtREV3WIIdNfAPDs_Up7Xi5FkSpH0Ek39WzfgTeY5Zy_YN_OqNY-Np9fvQUnd_Z2ThiiyHLZdhumvzncHclolttSo8n3FGciNvBfD7jAGHMncLYYsRGuxafSAmD25-0M_HsCZWbY0R8_z7uho2OAGt22lbNHEaVLCNmi8WB1mhg-qoufhFIelGeWxiTaeUC7auMgRaa4t185FuTu_QMBk1UxftQX4kyno5qTH-rHfDLDfkhh0_YWMk2nzacZ3Tn0ExKd1pbFdM2G-Dy74rJqCsW3tN2LPZKUAoddXm5Hm7OxVe5e4gfTdIf3YTHc85rkrqRtwLyezw-tLdRfzk5NtP4z1xoFhpgrKwQ8cWfUWLtG07aqhH9giDgEkhWoBfQPKU0QhVmD6l-H54ag4YuV_LaStndodmGKYwBJdlpdSXJx32yAQD0cwOx_i1D5vK63LBYhfCiA_kuiFEuZViL5O_lqb9HoiO1-4psqXEY2uKHwqlnl3Thv6_4vHSJ31adV95TtsY2oN_83TF862BwhjKfwaYKQc-jTKdI8KJET4TCoa_-vISuE8XlRnQTXJvUtd_EHhLhoS4WqSHmerh7JLwl_-ykxkwFj7LVN8oRNlgeBQUVWUtxKo_0000]--></g></svg>